<svg xmlns="http://www.w3.org/2000/svg" viewBox="0 0 900 775" width="900">
<defs>
  <style>
    @font-face {
      font-family: 'Mono';
      src: local('Courier New'), local('Consolas'), local('monospace');
    }
    text { font-family: 'Courier New', Consolas, monospace; }
  </style>
  <filter id="glow">
    <feGaussianBlur stdDeviation="1.5" result="blur"/>
    <feMerge><feMergeNode in="blur"/><feMergeNode in="SourceGraphic"/></feMerge>
  </filter>
</defs>
<rect width="900" height="775" fill="#0d1117" rx="8"/>
<rect x="24" y="24" width="852" height="36" fill="#161b22" stroke="#30363d" stroke-width="1" rx="6"/>
<circle cx="38" cy="42" r="5" fill="#ff5f56"/>
<circle cx="54" cy="42" r="5" fill="#ffbd2e"/>
<circle cx="70" cy="42" r="5" fill="#27c93f"/>
<text x="84" y="47" fill="#00cc33" font-size="12">uvv-01@cp-dashboard ~ $ ./profile.sh</text>
<text x="868" y="47" fill="#00ff41" font-size="11" font-weight="bold">ONLINE</text>
<line x1="24" y1="74" x2="876" y2="74" stroke="#30363d" stroke-width="1"/>
<text x="24" y="102" fill="#ffb000" font-size="11" font-weight="bold">PROFILE</text>
<rect x="24" y="114" width="80" height="80" fill="#0d1117" stroke="#00cc33" stroke-width="2" rx="4"/>
<text x="64" y="146" fill="#8b949e" font-size="28">[</text>
<text x="64" y="172" fill="#8b949e" font-size="12">IMG</text>
<text x="64" y="186" fill="#8b949e" font-size="28">]</text>
<text x="24" y="222" fill="#8b949e" font-size="11">USER:</text>
<text x="76" y="222" fill="#e6edf3" font-size="11" font-weight="bold">yuvraj</text>
<text x="24" y="242" fill="#8b949e" font-size="11">STATUS:</text>
<text x="86" y="242" fill="#00ff41" font-size="11" font-weight="bold">CODING</text>
<text x="24" y="262" fill="#8b949e" font-size="11">FOCUS:</text>
<text x="78" y="262" fill="#00d4ff" font-size="11">CP / OSS / Backend</text>
<text x="24" y="282" fill="#8b949e" font-size="11">LINKS:</text>
<text x="32" y="300" fill="#00ff41" font-size="10">  > GITHUB</text>
<text x="32" y="316" fill="#00d4ff" font-size="10">  > LINKEDIN</text>
<text x="32" y="332" fill="#ffb000" font-size="10">  > EMAIL</text>
<text x="292" y="102" fill="#ffb000" font-size="11" font-weight="bold">CONTEST DATABASE</text>
<rect x="292" y="116" width="584" height="20" fill="#5B4638" stroke="none" stroke-width="0" rx="3"/>
<text x="300" y="130" fill="#e6edf3" font-size="10" font-weight="bold">CODECHEF</text>
<text x="296" y="154" fill="#8b949e" font-size="10">RATING</text>
<text x="364" y="154" fill="#e6edf3" font-size="10" font-weight="bold">1202</text>
<text x="296" y="170" fill="#8b949e" font-size="10">MAX</text>
<text x="364" y="170" fill="#ffb000" font-size="10" font-weight="bold">1202</text>
<text x="296" y="186" fill="#8b949e" font-size="10">CONTESTS</text>
<text x="364" y="186" fill="#e6edf3" font-size="10" font-weight="bold">9</text>
<rect x="292" y="198" width="584" height="20" fill="#FFA116" stroke="none" stroke-width="0" rx="3"/>
<text x="300" y="212" fill="#e6edf3" font-size="10" font-weight="bold">LEETCODE</text>
<text x="296" y="236" fill="#8b949e" font-size="10">SOLVED</text>
<text x="364" y="236" fill="#00ff41" font-size="10" font-weight="bold">151</text>
<text x="296" y="252" fill="#8b949e" font-size="10">EASY</text>
<text x="364" y="252" fill="#00cc33" font-size="10" font-weight="bold">90</text>
<text x="296" y="268" fill="#8b949e" font-size="10">MED</text>
<text x="364" y="268" fill="#ffb000" font-size="10" font-weight="bold">59</text>
<text x="296" y="284" fill="#8b949e" font-size="10">HARD</text>
<text x="364" y="284" fill="#ff4444" font-size="10" font-weight="bold">2</text>
<text x="296" y="300" fill="#8b949e" font-size="10">RANK</text>
<text x="364" y="300" fill="#8b949e" font-size="10" font-weight="bold">#1,152,471</text>
<line x1="24" y1="348" x2="876" y2="348" stroke="#30363d" stroke-width="1"/>
<text x="24" y="376" fill="#ffb000" font-size="11" font-weight="bold">GITHUB SYSTEM</text>
<rect x="24" y="390" width="207" height="44" fill="#161b22" stroke="#30363d" stroke-width="1" rx="4"/>
<text x="127" y="408" fill="#8b949e" font-size="9">REPOS</text>
<text x="127" y="426" fill="#00ff41" font-size="14" font-weight="bold">25</text>
<rect x="239" y="390" width="207" height="44" fill="#161b22" stroke="#30363d" stroke-width="1" rx="4"/>
<text x="342" y="408" fill="#8b949e" font-size="9">STARS</text>
<text x="342" y="426" fill="#00ff41" font-size="14" font-weight="bold">1</text>
<rect x="454" y="390" width="207" height="44" fill="#161b22" stroke="#30363d" stroke-width="1" rx="4"/>
<text x="557" y="408" fill="#8b949e" font-size="9">FOLLOWERS</text>
<text x="557" y="426" fill="#00ff41" font-size="14" font-weight="bold">21</text>
<rect x="669" y="390" width="207" height="44" fill="#161b22" stroke="#30363d" stroke-width="1" rx="4"/>
<text x="772" y="408" fill="#8b949e" font-size="9">CONTRIBUTIONS</text>
<text x="772" y="426" fill="#00ff41" font-size="14" font-weight="bold">227 (1yr)</text>
<text x="24" y="458" fill="#8b949e" font-size="10">LANGUAGES:</text>
<circle cx="104" cy="454" r="4" fill="#3572A5"/>
<text x="112" y="458" fill="#e6edf3" font-size="10">Python</text>
<circle cx="166" cy="454" r="4" fill="#e34c26"/>
<text x="174" y="458" fill="#e6edf3" font-size="10">HTML</text>
<circle cx="214" cy="454" r="4" fill="#3178c6"/>
<text x="222" y="458" fill="#e6edf3" font-size="10">TypeScript</text>
<circle cx="304" cy="454" r="4" fill="#f34b7d"/>
<text x="312" y="458" fill="#e6edf3" font-size="10">C++</text>
<circle cx="345" cy="454" r="4" fill="#563d7c"/>
<text x="353" y="458" fill="#e6edf3" font-size="10">CSS</text>
<line x1="24" y1="470" x2="876" y2="470" stroke="#30363d" stroke-width="1"/>
<text x="24" y="496" fill="#ffb000" font-size="11" font-weight="bold">CONTRIBUTION GRID</text>
<foreignObject x="24" y="504" width="852" height="160">
  <div xmlns="http://www.w3.org/1999/xhtml" style="width:100%;overflow:hidden;">
    <picture>
      <source media="(prefers-color-scheme: dark)" srcset="https://raw.githubusercontent.com/uvv-01/uvv-01/output/github-contribution-grid-snake-dark.svg"/>
      <source media="(prefers-color-scheme: light)" srcset="https://raw.githubusercontent.com/uvv-01/uvv-01/output/github-contribution-grid-snake.svg"/>
      <img src="https://raw.githubusercontent.com/uvv-01/uvv-01/output/github-contribution-grid-snake.svg" style="width:100%;max-width:852px;" alt="Contribution Snake"/>
    </picture>
  </div>
</foreignObject>
<line x1="24" y1="669" x2="876" y2="669" stroke="#30363d" stroke-width="1"/>
<text x="24" y="695" fill="#484f58" font-size="9">LAST SYNC: 2026-09-19 10:03 UTC</text>
<text x="876" y="695" fill="#00ff41" font-size="9">SYSTEM READY</text>
<rect x="24" y="711" width="852" height="32" fill="#161b22" stroke="#30363d" stroke-width="1" rx="4"/>
<text x="450" y="732" fill="#8b949e" font-size="10">Mining algorithms, crafting projects, one commit at a time.</text>
</svg>